<?xml version="1.0" standalone="no"?>
 <!DOCTYPE svg PUBLIC "-//W3C//DTD SVG 1.1//EN" 
 "http://www.w3.org/Graphics/SVG/1.1/DTD/svg11.dtd"> 
<svg xmlns="http://www.w3.org/2000/svg" version="1.1" 
    width="10.3226cm" height="10.7493cm" viewBox="0 0 40640 42320 ">
<title>SVG Picture created as master1284-F_SilkS.svg date 2014/01/07 16:54:20 </title>
  <desc>Picture generated by PCBNEW </desc>
<g style="fill:#000000; fill-opacity:1;stroke:#000000; stroke-opacity:1;
stroke-linecap:round; stroke-linejoin:round; "
 transform="translate(0 0) scale(1 1)">
</g>
<g style="fill:#000000; fill-opacity:0.0; 
stroke:#000000; stroke-width:118.11; stroke-opacity:1; 
stroke-linecap:round; stroke-linejoin:round;">
<path d="M15740 11564
L15740 11170
" />
<path d="M15599 11789
L15459 11367
L15824 11367
" />
<path d="M12931 11761
L13296 11761
L13099 11536
L13184 11536
L13240 11508
L13268 11480
L13296 11424
L13296 11283
L13268 11227
L13240 11199
L13184 11170
L13015 11170
L12959 11199
L12931 11227
" />
<path d="M10459 11705
L10487 11733
L10543 11761
L10684 11761
L10740 11733
L10768 11705
L10796 11649
L10796 11592
L10768 11508
L10431 11170
L10796 11170
" />
<path d="M8296 11170
L7959 11170
" />
<path d="M8128 11170
L8128 11761
L8071 11677
L8015 11620
L7959 11592
" />
<path d="M4840 14420
L4840 15011
L5065 15011
L5121 14983
L5149 14955
L5178 14899
L5178 14814
L5149 14758
L5121 14730
L5065 14702
L4840 14702
" />
<path d="M5374 15011
L5515 14420
L5628 14842
L5740 14420
L5881 15011
" />
<path d="M6443 14420
L6246 14702
" />
<path d="M6106 14420
L6106 15011
L6331 15011
L6387 14983
L6415 14955
L6443 14899
L6443 14814
L6415 14758
L6387 14730
L6331 14702
L6106 14702
" />
</g>
<g style="fill:#000000; fill-opacity:0.0; 
stroke:#000000; stroke-width:150; stroke-opacity:1; 
stroke-linecap:round; stroke-linejoin:round;">
<path d="M17878 12152
L17792 12195
L17663 12195
L17535 12152
L17449 12067
L17406 11981
L17363 11809
L17363 11681
L17406 11509
L17449 11424
L17535 11338
L17663 11295
L17749 11295
L17878 11338
L17920 11381
L17920 11681
L17749 11681
" />
<path d="M18692 11295
L18692 11767
L18649 11852
L18563 11895
L18392 11895
L18306 11852
" />
<path d="M18692 11338
L18606 11295
L18392 11295
L18306 11338
L18263 11424
L18263 11509
L18306 11595
L18392 11638
L18606 11638
L18692 11681
" />
<path d="M19120 11895
L19120 11124
L19078 11038
L18992 10995
L18949 10995
" />
<path d="M19120 12195
L19078 12152
L19120 12109
L19163 12152
L19120 12195
L19120 12109
" />
<path d="M19935 11895
L19935 11295
" />
<path d="M19549 11895
L19549 11424
L19592 11338
L19678 11295
L19806 11295
L19892 11338
L19935 11381
" />
<path d="M20363 11295
L20363 11895
" />
<path d="M20363 11724
L20406 11809
L20449 11852
L20535 11895
L20620 11895
" />
<path d="M21606 11295
L21606 12195
" />
<path d="M22035 11895
L22035 11295
" />
<path d="M22035 11809
L22078 11852
L22163 11895
L22292 11895
L22378 11852
L22420 11767
L22420 11295
" />
<path d="M22849 11895
L22849 11295
" />
<path d="M22849 11809
L22892 11852
L22978 11895
L23106 11895
L23192 11852
L23235 11767
L23235 11295
" />
<path d="M23792 11295
L23706 11338
L23663 11381
L23620 11467
L23620 11724
L23663 11809
L23706 11852
L23792 11895
L23920 11895
L24006 11852
L24049 11809
L24092 11724
L24092 11467
L24049 11381
L24006 11338
L23920 11295
L23792 11295
" />
<path d="M24392 11895
L24606 11295
L24820 11895
" />
<path d="M25549 11295
L25549 11767
L25506 11852
L25420 11895
L25249 11895
L25163 11852
" />
<path d="M25549 11338
L25463 11295
L25249 11295
L25163 11338
L25120 11424
L25120 11509
L25163 11595
L25249 11638
L25463 11638
L25549 11681
" />
<path d="M25849 11895
L26192 11895
" />
<path d="M25978 12195
L25978 11424
L26020 11338
L26106 11295
L26192 11295
" />
<path d="M26492 11295
L26492 11895
" />
<path d="M26492 12195
L26449 12152
L26492 12109
L26535 12152
L26492 12195
L26492 12109
" />
<path d="M27049 11295
L26963 11338
L26920 11381
L26878 11467
L26878 11724
L26920 11809
L26963 11852
L27049 11895
L27178 11895
L27263 11852
L27306 11809
L27349 11724
L27349 11467
L27306 11381
L27263 11338
L27178 11295
L27049 11295
" />
<path d="M27735 11895
L27735 11295
" />
<path d="M27735 11809
L27778 11852
L27863 11895
L27992 11895
L28078 11852
L28120 11767
L28120 11295
" />
<path d="M28506 11338
L28592 11295
L28763 11295
L28849 11338
L28892 11424
L28892 11467
L28849 11552
L28763 11595
L28635 11595
L28549 11638
L28506 11724
L28506 11767
L28549 11852
L28635 11895
L28763 11895
L28849 11852
" />
</g>
<g style="fill:#000000; fill-opacity:0.0; 
stroke:#000000; stroke-width:118.11; stroke-opacity:1; 
stroke-linecap:round; stroke-linejoin:round;">
<path d="M29617 27499
L29026 27499
L29448 27695
L29026 27892
L29617 27892
" />
<path d="M29026 28089
L29026 28427
" />
<path d="M29617 28258
L29026 28258
" />
<path d="M29617 28567
L29223 28877
" />
<path d="M29223 28567
L29617 28877
" />
<path d="M39117 27428
L38526 27428
L38948 27625
L38526 27822
L39117 27822
" />
<path d="M39117 28441
L38835 28244
" />
<path d="M39117 28103
L38526 28103
L38526 28328
L38554 28384
L38582 28413
L38638 28441
L38723 28441
L38779 28413
L38807 28384
L38835 28328
L38835 28103
" />
<path d="M39117 28638
L38723 28947
" />
<path d="M38723 28638
L39117 28947
" />
<path d="M29026 13752
L29026 14089
" />
<path d="M29617 13920
L29026 13920
" />
<path d="M29617 14230
L29223 14539
" />
<path d="M29223 14230
L29617 14539
" />
<path d="M39117 14103
L38835 13906
" />
<path d="M39117 13766
L38526 13766
L38526 13991
L38554 14047
L38582 14075
L38638 14103
L38723 14103
L38779 14075
L38807 14047
L38835 13991
L38835 13766
" />
<path d="M39117 14300
L38723 14609
" />
<path d="M38723 14300
L39117 14609
" />
<path d="M11965 14211
L11611 14564
L11982 14430
L11847 14800
L12201 14447
" />
<path d="M12083 15036
L12150 15103
L12201 15120
L12268 15120
L12352 15069
L12470 14952
L12521 14867
L12521 14800
L12504 14750
L12436 14682
L12386 14665
L12319 14665
L12234 14716
L12117 14834
L12066 14918
L12066 14985
L12083 15036
" />
<path d="M12706 14985
L12773 15019
L12857 15103
L12874 15154
L12874 15187
L12857 15238
L12824 15271
L12773 15288
L12739 15288
L12689 15271
L12605 15221
L12554 15204
L12521 15204
L12470 15221
L12436 15255
L12420 15305
L12420 15339
L12436 15389
L12521 15474
L12588 15507
" />
<path d="M13076 15322
L12723 15676
" />
<path d="M13299 14329
L13367 14362
L13451 14447
L13468 14497
L13468 14531
L13451 14581
L13417 14615
L13367 14632
L13333 14632
L13282 14615
L13198 14564
L13148 14548
L13114 14548
L13063 14564
L13030 14598
L13013 14649
L13013 14682
L13030 14733
L13114 14817
L13181 14851
" />
<path d="M13838 14901
L13838 14867
L13804 14800
L13771 14766
L13703 14733
L13636 14733
L13585 14750
L13501 14800
L13451 14851
L13400 14935
L13383 14985
L13383 15053
L13417 15120
L13451 15154
L13518 15187
L13552 15187
" />
<path d="M14023 15019
L13670 15372
" />
<path d="M14225 15221
L13872 15271
" />
<path d="M13872 15575
L13872 15170
" />
<path d="M14465 14211
L14111 14564
L14482 14430
L14347 14800
L14701 14447
" />
<path d="M14869 14615
L14516 14968
" />
<path d="M15004 14783
L15071 14817
L15155 14901
L15172 14952
L15172 14985
L15155 15036
L15122 15069
L15071 15086
L15037 15086
L14987 15069
L14903 15019
L14852 15002
L14819 15002
L14768 15019
L14734 15053
L14718 15103
L14718 15137
L14734 15187
L14819 15271
L14886 15305
" />
<path d="M15088 15541
L15155 15608
L15206 15625
L15273 15625
L15357 15575
L15475 15457
L15526 15372
L15526 15305
L15509 15255
L15442 15187
L15391 15170
L15324 15170
L15239 15221
L15122 15339
L15071 15423
L15071 15490
L15088 15541
" />
<path d="M17867 14336
L17585 14139
" />
<path d="M17867 13999
L17276 13999
L17276 14224
L17304 14280
L17332 14308
L17388 14336
L17473 14336
L17529 14308
L17557 14280
L17585 14224
L17585 13999
" />
<path d="M17838 14561
L17867 14645
L17867 14786
L17838 14842
L17810 14870
L17754 14899
L17698 14899
L17642 14870
L17613 14842
L17585 14786
L17557 14674
L17529 14617
L17501 14589
L17445 14561
L17388 14561
L17332 14589
L17304 14617
L17276 14674
L17276 14814
L17304 14899
" />
<path d="M17276 15067
L17276 15405
" />
<path d="M17867 15236
L17276 15236
" />
<path d="M11575 7420
L11575 8011
L11715 8011
L11800 7983
L11856 7927
L11884 7870
L11912 7758
L11912 7674
L11884 7561
L11856 7505
L11800 7449
L11715 7420
L11575 7420
" />
<path d="M12362 7730
L12446 7702
L12475 7674
L12503 7617
L12503 7533
L12475 7477
L12446 7449
L12390 7420
L12165 7420
L12165 8011
L12362 8011
L12418 7983
L12446 7955
L12475 7899
L12475 7842
L12446 7786
L12418 7758
L12362 7730
L12165 7730
" />
<path d="M12784 7420
L12896 7420
L12953 7449
L12981 7477
L13037 7561
L13065 7674
L13065 7899
L13037 7955
L13009 7983
L12953 8011
L12840 8011
L12784 7983
L12756 7955
L12728 7899
L12728 7758
L12756 7702
L12784 7674
L12840 7645
L12953 7645
L13009 7674
L13037 7702
L13065 7758
" />
<path d="M13768 7420
L13768 8011
L13965 7589
L14162 8011
L14162 7420
" />
<path d="M14415 7589
L14696 7589
" />
<path d="M14359 7420
L14556 8011
L14752 7420
" />
<path d="M15230 7420
L14949 7420
L14949 8011
" />
<path d="M15427 7730
L15624 7730
" />
<path d="M15708 7420
L15427 7420
L15427 8011
L15708 8011
" />
<path d="M31575 7420
L31575 8011
L31715 8011
L31800 7983
L31856 7927
L31884 7870
L31912 7758
L31912 7674
L31884 7561
L31856 7505
L31800 7449
L31715 7420
L31575 7420
" />
<path d="M32362 7730
L32446 7702
L32475 7674
L32503 7617
L32503 7533
L32475 7477
L32446 7449
L32390 7420
L32165 7420
L32165 8011
L32362 8011
L32418 7983
L32446 7955
L32475 7899
L32475 7842
L32446 7786
L32418 7758
L32362 7730
L32165 7730
" />
<path d="M32784 7420
L32896 7420
L32953 7449
L32981 7477
L33037 7561
L33065 7674
L33065 7899
L33037 7955
L33009 7983
L32953 8011
L32840 8011
L32784 7983
L32756 7955
L32728 7899
L32728 7758
L32756 7702
L32784 7674
L32840 7645
L32953 7645
L33009 7674
L33037 7702
L33065 7758
" />
<path d="M33768 7420
L33768 8011
L33965 7589
L34162 8011
L34162 7420
" />
<path d="M34415 7589
L34696 7589
" />
<path d="M34359 7420
L34556 8011
L34752 7420
" />
<path d="M35230 7420
L34949 7420
L34949 8011
" />
<path d="M35427 7730
L35624 7730
" />
<path d="M35708 7420
L35427 7420
L35427 8011
L35708 8011
" />
<path d="M31054 34670
L31054 35261
L31195 35261
L31279 35233
L31336 35177
L31364 35120
L31392 35008
L31392 34924
L31364 34811
L31336 34755
L31279 34699
L31195 34670
L31054 34670
" />
<path d="M31842 34980
L31926 34952
L31954 34924
L31982 34867
L31982 34783
L31954 34727
L31926 34699
L31870 34670
L31645 34670
L31645 35261
L31842 35261
L31898 35233
L31926 35205
L31954 35149
L31954 35092
L31926 35036
L31898 35008
L31842 34980
L31645 34980
" />
<path d="M32264 34670
L32376 34670
L32432 34699
L32460 34727
L32517 34811
L32545 34924
L32545 35149
L32517 35205
L32489 35233
L32432 35261
L32320 35261
L32264 35233
L32235 35205
L32207 35149
L32207 35008
L32235 34952
L32264 34924
L32320 34895
L32432 34895
L32489 34924
L32517 34952
L32545 35008
" />
<path d="M33445 34980
L33248 34980
" />
<path d="M33248 34670
L33248 35261
L33529 35261
" />
<path d="M33754 34980
L33951 34980
" />
<path d="M34035 34670
L33754 34670
L33754 35261
L34035 35261
" />
<path d="M34288 34670
L34288 35261
L34485 34839
L34682 35261
L34682 34670
" />
<path d="M34935 34839
L35216 34839
" />
<path d="M34879 34670
L35076 35261
L35273 34670
" />
<path d="M35751 34670
L35469 34670
L35469 35261
" />
<path d="M35948 34980
L36144 34980
" />
<path d="M36229 34670
L35948 34670
L35948 35261
L36229 35261
" />
<path d="M11575 34670
L11575 35261
L11715 35261
L11800 35233
L11856 35177
L11884 35120
L11912 35008
L11912 34924
L11884 34811
L11856 34755
L11800 34699
L11715 34670
L11575 34670
" />
<path d="M12362 34980
L12446 34952
L12475 34924
L12503 34867
L12503 34783
L12475 34727
L12446 34699
L12390 34670
L12165 34670
L12165 35261
L12362 35261
L12418 35233
L12446 35205
L12475 35149
L12475 35092
L12446 35036
L12418 35008
L12362 34980
L12165 34980
" />
<path d="M12784 34670
L12896 34670
L12953 34699
L12981 34727
L13037 34811
L13065 34924
L13065 35149
L13037 35205
L13009 35233
L12953 35261
L12840 35261
L12784 35233
L12756 35205
L12728 35149
L12728 35008
L12756 34952
L12784 34924
L12840 34895
L12953 34895
L13009 34924
L13037 34952
L13065 35008
" />
<path d="M13768 34670
L13768 35261
L13965 34839
L14162 35261
L14162 34670
" />
<path d="M14415 34839
L14696 34839
" />
<path d="M14359 34670
L14556 35261
L14752 34670
" />
<path d="M15230 34670
L14949 34670
L14949 35261
" />
<path d="M15427 34980
L15624 34980
" />
<path d="M15708 34670
L15427 34670
L15427 35261
L15708 35261
" />
<path d="M15840 30011
L16037 29420
L16234 30011
" />
<path d="M16768 29477
L16740 29449
L16656 29420
L16599 29420
L16515 29449
L16459 29505
L16431 29561
L16403 29674
L16403 29758
L16431 29870
L16459 29927
L16515 29983
L16599 30011
L16656 30011
L16740 29983
L16768 29955
" />
<path d="M17359 29477
L17331 29449
L17246 29420
L17190 29420
L17106 29449
L17049 29505
L17021 29561
L16993 29674
L16993 29758
L17021 29870
L17049 29927
L17106 29983
L17190 30011
L17246 30011
L17331 29983
L17359 29955
" />
<path d="M16178 30733
L16121 30761
L16037 30761
L15953 30733
L15896 30677
L15868 30620
L15840 30508
L15840 30424
L15868 30311
L15896 30255
L15953 30199
L16037 30170
L16093 30170
L16178 30199
L16206 30227
L16206 30424
L16093 30424
" />
<path d="M16459 30170
L16459 30761
L16796 30170
L16796 30761
" />
<path d="M17077 30170
L17077 30761
L17218 30761
L17302 30733
L17359 30677
L17387 30620
L17415 30508
L17415 30424
L17387 30311
L17359 30255
L17302 30199
L17218 30170
L17077 30170
" />
<path d="M23192 35261
L23529 35261
" />
<path d="M23360 34670
L23360 35261
" />
<path d="M23810 34670
L23754 34699
L23726 34727
L23698 34783
L23698 34952
L23726 35008
L23754 35036
L23810 35064
L23895 35064
L23951 35036
L23979 35008
L24007 34952
L24007 34783
L23979 34727
L23951 34699
L23895 34670
L23810 34670
" />
<path d="M21040 33754
L21125 33726
L21265 33726
L21322 33754
L21350 33782
L21378 33838
L21378 33894
L21350 33951
L21322 33979
L21265 34007
L21153 34035
L21097 34063
L21068 34091
L21040 34147
L21040 34204
L21068 34260
L21097 34288
L21153 34316
L21293 34316
L21378 34288
" />
<path d="M21884 34119
L21884 33726
" />
<path d="M21631 34119
L21631 33810
L21659 33754
L21715 33726
L21800 33726
L21856 33754
L21884 33782
" />
<path d="M22165 34119
L22165 33529
" />
<path d="M22165 34091
L22221 34119
L22334 34119
L22390 34091
L22418 34063
L22446 34007
L22446 33838
L22418 33782
L22390 33754
L22334 33726
L22221 33726
L22165 33754
" />
<path d="M22924 33754
L22868 33726
L22756 33726
L22699 33754
L22671 33810
L22671 34035
L22699 34091
L22756 34119
L22868 34119
L22924 34091
L22953 34035
L22953 33979
L22671 33922
" />
<path d="M23206 33726
L23206 34119
" />
<path d="M23206 34007
L23234 34063
L23262 34091
L23318 34119
L23374 34119
" />
<path d="M23571 33726
L23571 34316
L23768 33894
L23965 34316
L23965 33726
" />
<path d="M24499 33726
L24499 34035
L24471 34091
L24415 34119
L24302 34119
L24246 34091
" />
<path d="M24499 33754
L24443 33726
L24302 33726
L24246 33754
L24218 33810
L24218 33866
L24246 33922
L24302 33951
L24443 33951
L24499 33979
" />
<path d="M24752 33754
L24809 33726
L24921 33726
L24977 33754
L25005 33810
L25005 33838
L24977 33894
L24921 33922
L24837 33922
L24780 33951
L24752 34007
L24752 34035
L24780 34091
L24837 34119
L24921 34119
L24977 34091
" />
<path d="M25174 34119
L25399 34119
" />
<path d="M25259 34316
L25259 33810
L25287 33754
L25343 33726
L25399 33726
" />
<path d="M25821 33754
L25765 33726
L25652 33726
L25596 33754
L25568 33810
L25568 34035
L25596 34091
L25652 34119
L25765 34119
L25821 34091
L25849 34035
L25849 33979
L25568 33922
" />
<path d="M26102 33726
L26102 34119
" />
<path d="M26102 34007
L26130 34063
L26158 34091
L26215 34119
L26271 34119
" />
<path d="M21547 9011
L21884 9011
" />
<path d="M21715 8420
L21715 9011
" />
<path d="M22165 8420
L22109 8449
L22081 8477
L22053 8533
L22053 8702
L22081 8758
L22109 8786
L22165 8814
L22250 8814
L22306 8786
L22334 8758
L22362 8702
L22362 8533
L22334 8477
L22306 8449
L22250 8420
L22165 8420
" />
<path d="M23037 8449
L23121 8420
L23262 8420
L23318 8449
L23346 8477
L23374 8533
L23374 8589
L23346 8645
L23318 8674
L23262 8702
L23149 8730
L23093 8758
L23065 8786
L23037 8842
L23037 8899
L23065 8955
L23093 8983
L23149 9011
L23290 9011
L23374 8983
" />
<path d="M23712 8420
L23656 8449
L23628 8505
L23628 9011
" />
<path d="M24190 8420
L24190 8730
L24162 8786
L24106 8814
L23993 8814
L23937 8786
" />
<path d="M24190 8449
L24134 8420
L23993 8420
L23937 8449
L23909 8505
L23909 8561
L23937 8617
L23993 8645
L24134 8645
L24190 8674
" />
<path d="M24415 8814
L24556 8420
L24696 8814
" />
<path d="M25146 8449
L25090 8420
L24977 8420
L24921 8449
L24893 8505
L24893 8730
L24921 8786
L24977 8814
L25090 8814
L25146 8786
L25174 8730
L25174 8674
L24893 8617
" />
<path d="M25399 8449
L25455 8420
L25568 8420
L25624 8449
L25652 8505
L25652 8533
L25624 8589
L25568 8617
L25484 8617
L25427 8645
L25399 8702
L25399 8730
L25427 8786
L25484 8814
L25568 8814
L25624 8786
" />
<path d="M22546 17920
L22209 17920
" />
<path d="M22378 17920
L22378 18511
L22321 18427
L22265 18370
L22209 18342
" />
<path d="M22349 16511
L22406 16511
L22462 16483
L22490 16455
L22518 16399
L22546 16286
L22546 16145
L22518 16033
L22490 15977
L22462 15949
L22406 15920
L22349 15920
L22293 15949
L22265 15977
L22237 16033
L22209 16145
L22209 16286
L22237 16399
L22265 16455
L22293 16483
L22349 16511
" />
<path d="M26304 14210
L26276 14153
L26276 14069
L26304 13985
L26360 13928
L26417 13900
L26529 13872
L26613 13872
L26726 13900
L26782 13928
L26838 13985
L26867 14069
L26867 14125
L26838 14210
L26810 14238
L26613 14238
L26613 14125
" />
<path d="M26867 14491
L26276 14491
L26867 14828
L26276 14828
" />
<path d="M26867 15109
L26276 15109
L26276 15250
L26304 15334
L26360 15391
L26417 15419
L26529 15447
L26613 15447
L26726 15419
L26782 15391
L26838 15334
L26867 15250
L26867 15109
" />
<path d="M25276 13872
L25867 14069
L25276 14266
" />
<path d="M25810 14800
L25838 14772
L25867 14688
L25867 14631
L25838 14547
L25782 14491
L25726 14463
L25613 14435
L25529 14435
L25417 14463
L25360 14491
L25304 14547
L25276 14631
L25276 14688
L25304 14772
L25332 14800
" />
<path d="M25810 15391
L25838 15363
L25867 15278
L25867 15222
L25838 15138
L25782 15081
L25726 15053
L25613 15025
L25529 15025
L25417 15053
L25360 15081
L25304 15138
L25276 15222
L25276 15278
L25304 15363
L25332 15391
" />
<path d="M24276 14502
L24276 14839
" />
<path d="M24867 14670
L24276 14670
" />
<path d="M24867 14980
L24473 15289
" />
<path d="M24473 14980
L24867 15289
" />
<path d="M23867 14853
L23585 14656
" />
<path d="M23867 14516
L23276 14516
L23276 14741
L23304 14797
L23332 14825
L23388 14853
L23473 14853
L23529 14825
L23557 14797
L23585 14741
L23585 14516
" />
<path d="M23867 15050
L23473 15359
" />
<path d="M23473 15050
L23867 15359
" />
</g>
<g style="fill:#000000; fill-opacity:0.0; 
stroke:#000000; stroke-width:78.7402; stroke-opacity:1; 
stroke-linecap:round; stroke-linejoin:round;">
<path d="M17628 29159
L15628 29159
" />
<path d="M36128 25159
L37128 24159
" />
<path d="M35628 24159
L32128 24159
" />
<path d="M14628 18159
L13628 19159
" />
</g>
<g style="fill:#000000; fill-opacity:0.0; 
stroke:#000000; stroke-width:39.3701; stroke-opacity:1; 
stroke-linecap:round; stroke-linejoin:round;">
<path d="M628 6159
L628 36159
" />
<path d="M40628 6159
L628 6159
" />
<path d="M40628 36159
L40628 6159
" />
<path d="M628 36159
L40628 36159
" />
</g>
<g style="fill:#000000; fill-opacity:0.0; 
stroke:#000000; stroke-width:80; stroke-opacity:1; 
stroke-linecap:round; stroke-linejoin:round;">
<path d="M31568 12387
L31282 12387
" />
<path d="M31425 12387
L31425 12937
L31378 12858
L31330 12806
L31282 12780
" />
<path d="M31878 12937
L31925 12937
L31973 12911
L31997 12884
L32020 12832
L32044 12727
L32044 12596
L32020 12492
L31997 12439
L31973 12413
L31925 12387
L31878 12387
L31830 12413
L31806 12439
L31782 12492
L31758 12596
L31758 12727
L31782 12832
L31806 12884
L31830 12911
L31878 12937
" />
<path d="M32354 12937
L32401 12937
L32449 12911
L32473 12884
L32497 12832
L32520 12727
L32520 12596
L32497 12492
L32473 12439
L32449 12413
L32401 12387
L32354 12387
L32306 12413
L32282 12439
L32258 12492
L32235 12596
L32235 12727
L32258 12832
L32282 12884
L32306 12911
L32354 12937
" />
<path d="M32735 12675
L32901 12675
" />
<path d="M32973 12387
L32735 12387
L32735 12937
L32973 12937
" />
<path d="M34235 14854
L34235 14487
" />
<path d="M34116 15063
L33997 14670
L34306 14670
" />
<path d="M34497 14487
L34497 15037
" />
<path d="M34782 14487
L34568 14801
" />
<path d="M34782 15037
L34497 14723
" />
<path d="M34949 15037
L35282 15037
L35068 14487
" />
<path d="M31735 11854
L31735 11487
" />
<path d="M31616 12063
L31497 11670
L31806 11670
" />
<path d="M31997 11487
L31997 12037
" />
<path d="M32282 11487
L32068 11801
" />
<path d="M32282 12037
L31997 11723
" />
<path d="M32449 12037
L32782 12037
L32568 11487
" />
<path d="M35568 12487
L35282 12487
" />
<path d="M35425 12487
L35425 13037
L35378 12958
L35330 12906
L35282 12880
" />
<path d="M35878 13037
L35925 13037
L35973 13011
L35997 12984
L36020 12932
L36044 12827
L36044 12696
L36020 12592
L35997 12539
L35973 12513
L35925 12487
L35878 12487
L35830 12513
L35806 12539
L35782 12592
L35758 12696
L35758 12827
L35782 12932
L35806 12984
L35830 13011
L35878 13037
" />
<path d="M36354 13037
L36401 13037
L36449 13011
L36473 12984
L36497 12932
L36520 12827
L36520 12696
L36497 12592
L36473 12539
L36449 12513
L36401 12487
L36354 12487
L36306 12513
L36282 12539
L36258 12592
L36235 12696
L36235 12827
L36258 12932
L36282 12984
L36306 13011
L36354 13037
" />
<path d="M36735 12775
L36901 12775
" />
<path d="M36973 12487
L36735 12487
L36735 13037
L36973 13037
" />
<path d="M10900 17552
L10900 17267
" />
<path d="M10900 17409
L10350 17409
L10429 17362
L10481 17314
L10507 17267
" />
<path d="M10900 17767
L10350 17767
" />
<path d="M10900 18052
L10586 17838
" />
<path d="M10350 18052
L10664 17767
" />
<path d="M11900 17552
L11900 17267
" />
<path d="M11900 17409
L11350 17409
L11429 17362
L11481 17314
L11507 17267
" />
<path d="M11900 17767
L11350 17767
" />
<path d="M11900 18052
L11586 17838
" />
<path d="M11350 18052
L11664 17767
" />
<path d="M36735 11854
L36735 11487
" />
<path d="M36616 12063
L36497 11670
L36806 11670
" />
<path d="M36997 11487
L36997 12037
" />
<path d="M37282 11487
L37068 11801
" />
<path d="M37282 12037
L36997 11723
" />
<path d="M37449 12037
L37782 12037
L37568 11487
" />
<path d="M32735 13854
L32735 13487
" />
<path d="M32616 14063
L32497 13670
L32806 13670
" />
<path d="M32997 13487
L32997 14037
" />
<path d="M33282 13487
L33068 13801
" />
<path d="M33282 14037
L32997 13723
" />
<path d="M33449 14037
L33782 14037
L33568 13487
" />
<path d="M30735 29754
L30735 29387
" />
<path d="M30616 29963
L30497 29570
L30806 29570
" />
<path d="M30997 29387
L30997 29937
" />
<path d="M31282 29387
L31068 29701
" />
<path d="M31282 29937
L30997 29623
" />
<path d="M31449 29937
L31782 29937
L31568 29387
" />
<path d="M31568 30387
L31282 30387
" />
<path d="M31425 30387
L31425 30937
L31378 30858
L31330 30806
L31282 30780
" />
<path d="M31878 30937
L31925 30937
L31973 30911
L31997 30884
L32020 30832
L32044 30727
L32044 30596
L32020 30492
L31997 30439
L31973 30413
L31925 30387
L31878 30387
L31830 30413
L31806 30439
L31782 30492
L31758 30596
L31758 30727
L31782 30832
L31806 30884
L31830 30911
L31878 30937
" />
<path d="M32354 30937
L32401 30937
L32449 30911
L32473 30884
L32497 30832
L32520 30727
L32520 30596
L32497 30492
L32473 30439
L32449 30413
L32401 30387
L32354 30387
L32306 30413
L32282 30439
L32258 30492
L32235 30596
L32235 30727
L32258 30832
L32282 30884
L32306 30911
L32354 30937
" />
<path d="M32735 30675
L32901 30675
" />
<path d="M32973 30387
L32735 30387
L32735 30937
L32973 30937
" />
<path d="M6300 22314
L6300 22029
" />
<path d="M6300 22171
L5750 22171
L5829 22124
L5881 22076
L5907 22029
" />
<path d="M5750 22624
L5750 22671
L5776 22719
L5803 22743
L5855 22767
L5960 22790
L6091 22790
L6195 22767
L6248 22743
L6274 22719
L6300 22671
L6300 22624
L6274 22576
L6248 22552
L6195 22529
L6091 22505
L5960 22505
L5855 22529
L5803 22552
L5776 22576
L5750 22624
" />
<path d="M6300 23005
L5750 23005
" />
<path d="M6300 23290
L5986 23076
" />
<path d="M5750 23290
L6064 23005
" />
<path d="M6800 17100
L6800 16814
" />
<path d="M6800 16957
L6250 16957
L6329 16909
L6381 16862
L6407 16814
" />
<path d="M6250 17409
L6250 17457
L6276 17505
L6303 17529
L6355 17552
L6460 17576
L6591 17576
L6695 17552
L6748 17529
L6774 17505
L6800 17457
L6800 17409
L6774 17362
L6748 17338
L6695 17314
L6591 17290
L6460 17290
L6355 17314
L6303 17338
L6276 17362
L6250 17409
" />
<path d="M6250 17886
L6250 17933
L6276 17981
L6303 18005
L6355 18029
L6460 18052
L6591 18052
L6695 18029
L6748 18005
L6774 17981
L6800 17933
L6800 17886
L6774 17838
L6748 17814
L6695 17790
L6591 17767
L6460 17767
L6355 17790
L6303 17814
L6276 17838
L6250 17886
" />
<path d="M6512 18267
L6512 18433
" />
<path d="M6800 18505
L6800 18267
L6250 18267
L6250 18505
" />
<path d="M7900 17552
L7900 17267
" />
<path d="M7900 17409
L7350 17409
L7429 17362
L7481 17314
L7507 17267
" />
<path d="M7900 17767
L7350 17767
" />
<path d="M7900 18052
L7586 17838
" />
<path d="M7350 18052
L7664 17767
" />
<path d="M8900 17552
L8900 17267
" />
<path d="M8900 17409
L8350 17409
L8429 17362
L8481 17314
L8507 17267
" />
<path d="M8900 17767
L8350 17767
" />
<path d="M8900 18052
L8586 17838
" />
<path d="M8350 18052
L8664 17767
" />
<path d="M9900 17552
L9900 17267
" />
<path d="M9900 17409
L9350 17409
L9429 17362
L9481 17314
L9507 17267
" />
<path d="M9900 17767
L9350 17767
" />
<path d="M9900 18052
L9586 17838
" />
<path d="M9350 18052
L9664 17767
" />
<path d="M27800 27314
L27800 27029
" />
<path d="M27800 27171
L27250 27171
L27329 27124
L27381 27076
L27407 27029
" />
<path d="M27250 27624
L27250 27671
L27276 27719
L27303 27743
L27355 27767
L27460 27790
L27591 27790
L27695 27767
L27748 27743
L27774 27719
L27800 27671
L27800 27624
L27774 27576
L27748 27552
L27695 27529
L27591 27505
L27460 27505
L27355 27529
L27303 27552
L27276 27576
L27250 27624
" />
<path d="M27800 28005
L27250 28005
" />
<path d="M27800 28290
L27486 28076
" />
<path d="M27250 28290
L27564 28005
" />
<path d="M27900 18314
L27900 18029
" />
<path d="M27900 18171
L27350 18171
L27429 18124
L27481 18076
L27507 18029
" />
<path d="M27350 18624
L27350 18671
L27376 18719
L27403 18743
L27455 18767
L27560 18790
L27691 18790
L27795 18767
L27848 18743
L27874 18719
L27900 18671
L27900 18624
L27874 18576
L27848 18552
L27795 18529
L27691 18505
L27560 18505
L27455 18529
L27403 18552
L27376 18576
L27350 18624
" />
<path d="M27900 19005
L27350 19005
" />
<path d="M27900 19290
L27586 19076
" />
<path d="M27350 19290
L27664 19005
" />
<path d="M35735 30754
L35735 30387
" />
<path d="M35616 30963
L35497 30570
L35806 30570
" />
<path d="M35997 30387
L35997 30937
" />
<path d="M36282 30387
L36068 30701
" />
<path d="M36282 30937
L35997 30623
" />
<path d="M36449 30937
L36782 30937
L36568 30387
" />
<path d="M33235 27754
L33235 27387
" />
<path d="M33116 27963
L32997 27570
L33306 27570
" />
<path d="M33497 27387
L33497 27937
" />
<path d="M33782 27387
L33568 27701
" />
<path d="M33782 27937
L33497 27623
" />
<path d="M33949 27937
L34282 27937
L34068 27387
" />
<path d="M35568 29487
L35282 29487
" />
<path d="M35425 29487
L35425 30037
L35378 29958
L35330 29906
L35282 29880
" />
<path d="M35878 30037
L35925 30037
L35973 30011
L35997 29984
L36020 29932
L36044 29827
L36044 29696
L36020 29592
L35997 29539
L35973 29513
L35925 29487
L35878 29487
L35830 29513
L35806 29539
L35782 29592
L35758 29696
L35758 29827
L35782 29932
L35806 29984
L35830 30011
L35878 30037
" />
<path d="M36354 30037
L36401 30037
L36449 30011
L36473 29984
L36497 29932
L36520 29827
L36520 29696
L36497 29592
L36473 29539
L36449 29513
L36401 29487
L36354 29487
L36306 29513
L36282 29539
L36258 29592
L36235 29696
L36235 29827
L36258 29932
L36282 29984
L36306 30011
L36354 30037
" />
<path d="M36735 29775
L36901 29775
" />
<path d="M36973 29487
L36735 29487
L36735 30037
L36973 30037
" />
<path d="M34735 28754
L34735 28387
" />
<path d="M34616 28963
L34497 28570
L34806 28570
" />
<path d="M34997 28387
L34997 28937
" />
<path d="M35282 28387
L35068 28701
" />
<path d="M35282 28937
L34997 28623
" />
<path d="M35449 28937
L35782 28937
L35568 28387
" />
</g>
<g style="fill:#000000; fill-opacity:0.0; 
stroke:#000000; stroke-width:120; stroke-opacity:1; 
stroke-linecap:round; stroke-linejoin:round;">
</g>
<g style="fill:#000000; fill-opacity:0.0; 
stroke:#000000; stroke-width:80; stroke-opacity:1; 
stroke-linecap:round; stroke-linejoin:round;">
<path d="M3332 23998
L3332 24398
L3428 24398
L3485 24379
L3523 24340
L3542 24302
L3561 24226
L3561 24169
L3542 24093
L3523 24055
L3485 24017
L3428 23998
L3332 23998
" />
<path d="M3713 24359
L3732 24379
L3770 24398
L3866 24398
L3904 24379
L3923 24359
L3942 24321
L3942 24283
L3923 24226
L3694 23998
L3942 23998
" />
<path d="M3832 11498
L3832 11898
L3928 11898
L3985 11879
L4023 11840
L4042 11802
L4061 11726
L4061 11669
L4042 11593
L4023 11555
L3985 11517
L3928 11498
L3832 11498
" />
<path d="M4442 11498
L4213 11498
" />
<path d="M4328 11498
L4328 11898
L4289 11840
L4251 11802
L4213 11783
" />
</g>
<g style="fill:#000000; fill-opacity:0.0; 
stroke:#000000; stroke-width:75; stroke-opacity:1; 
stroke-linecap:round; stroke-linejoin:round;">
<path d="M3913 22652
L4142 22652
" />
<path d="M4028 22538
L4028 22767
" />
</g>
<g style="fill:#000000; fill-opacity:0.0; 
stroke:#000000; stroke-width:80; stroke-opacity:1; 
stroke-linecap:round; stroke-linejoin:round;">
</g>
<g style="fill:#000000; fill-opacity:0.0; 
stroke:#000000; stroke-width:75; stroke-opacity:1; 
stroke-linecap:round; stroke-linejoin:round;">
<path d="M28635 29645
L28635 29874
" />
<path d="M28749 29759
L28520 29759
" />
</g>
<g style="fill:#000000; fill-opacity:0.0; 
stroke:#000000; stroke-width:80; stroke-opacity:1; 
stroke-linecap:round; stroke-linejoin:round;">
</g>
<g style="fill:#000000; fill-opacity:0.0; 
stroke:#000000; stroke-width:75; stroke-opacity:1; 
stroke-linecap:round; stroke-linejoin:round;">
<path d="M38913 21152
L39142 21152
" />
<path d="M39028 21038
L39028 21267
" />
</g>
<g style="fill:#000000; fill-opacity:0.0; 
stroke:#000000; stroke-width:80; stroke-opacity:1; 
stroke-linecap:round; stroke-linejoin:round;">
</g>
<g style="fill:#000000; fill-opacity:0.0; 
stroke:#000000; stroke-width:120; stroke-opacity:1; 
stroke-linecap:round; stroke-linejoin:round;">
<path d="M7128 28659
L15128 28659
" />
<path d="M15128 28659
L15128 27659
" />
<path d="M15128 27659
L7128 27659
" />
<path d="M7128 27659
L7128 28659
" />
<path d="M8128 27659
L8128 28659
" />
<path d="M7128 29659
L15128 29659
" />
<path d="M15128 29659
L15128 28659
" />
<path d="M15128 28659
L7128 28659
" />
<path d="M7128 28659
L7128 29659
" />
<path d="M8128 28659
L8128 29659
" />
<path d="M7128 30659
L15128 30659
" />
<path d="M15128 30659
L15128 29659
" />
<path d="M15128 29659
L7128 29659
" />
<path d="M7128 29659
L7128 30659
" />
<path d="M8128 29659
L8128 30659
" />
<path d="M26128 27659
L18128 27659
" />
<path d="M18128 27659
L18128 28659
" />
<path d="M18128 28659
L26128 28659
" />
<path d="M26128 28659
L26128 27659
" />
<path d="M25128 28659
L25128 27659
" />
<path d="M26128 28659
L18128 28659
" />
<path d="M18128 28659
L18128 29659
" />
<path d="M18128 29659
L26128 29659
" />
<path d="M26128 29659
L26128 28659
" />
<path d="M25128 29659
L25128 28659
" />
<path d="M26128 29659
L18128 29659
" />
<path d="M18128 29659
L18128 30659
" />
<path d="M18128 30659
L26128 30659
" />
<path d="M26128 30659
L26128 29659
" />
<path d="M25128 30659
L25128 29659
" />
<path d="M18128 16659
L18128 15659
" />
<path d="M18128 15659
L12128 15659
" />
<path d="M12128 15659
L12128 16659
" />
<path d="M12128 16659
L18128 16659
" />
<path d="M17128 16659
L17128 15659
" />
<path d="M23128 18659
L23128 18659
" />
<path d="M23128 17659
L23128 18659
" />
<path d="M23128 18659
L23128 18659
" />
<path d="M23128 18659
L27128 18659
" />
<path d="M27128 18659
L27128 17659
" />
<path d="M27128 17659
L23128 17659
" />
<path d="M24128 17659
L24128 18659
" />
<path d="M23128 16659
L23128 16659
" />
<path d="M23128 15659
L23128 16659
" />
<path d="M23128 16659
L23128 16659
" />
<path d="M23128 16659
L27128 16659
" />
<path d="M27128 16659
L27128 15659
" />
<path d="M27128 15659
L23128 15659
" />
<path d="M24128 15659
L24128 16659
" />
<path d="M30128 29159
L31128 29159
" />
<path d="M31128 29159
L31128 27159
" />
<path d="M31128 27159
L30128 27159
" />
<path d="M30128 27159
L30128 29159
" />
<path d="M38128 13159
L37128 13159
" />
<path d="M37128 13159
L37128 15159
" />
<path d="M37128 15159
L38128 15159
" />
<path d="M38128 15159
L38128 13159
" />
<path d="M37128 29159
L38128 29159
" />
<path d="M38128 29159
L38128 27159
" />
<path d="M38128 27159
L37128 27159
" />
<path d="M37128 27159
L37128 29159
" />
<path d="M31128 13159
L30128 13159
" />
<path d="M30128 13159
L30128 15159
" />
<path d="M30128 15159
L31128 15159
" />
<path d="M31128 15159
L31128 13159
" />
</g>
<g style="fill:#000000; fill-opacity:0.0; 
stroke:#000000; stroke-width:80; stroke-opacity:1; 
stroke-linecap:round; stroke-linejoin:round;">
<path d="M30628 12659
L30828 12659
" />
<path d="M33628 12659
L33428 12659
" />
<path d="M33428 12659
L33428 13059
" />
<path d="M33428 13059
L30828 13059
" />
<path d="M30828 13059
L30828 12259
" />
<path d="M30828 12259
L33428 12259
" />
<path d="M33428 12259
L33428 12659
" />
<path d="M30828 12859
L31028 13059
" />
<path d="M36128 14659
L35928 14659
" />
<path d="M33128 14659
L33328 14659
" />
<path d="M33328 14659
L33328 14259
" />
<path d="M33328 14259
L35928 14259
" />
<path d="M35928 14259
L35928 15059
" />
<path d="M35928 15059
L33328 15059
" />
<path d="M33328 15059
L33328 14659
" />
<path d="M35928 14459
L35728 14259
" />
<path d="M33628 11659
L33428 11659
" />
<path d="M30628 11659
L30828 11659
" />
<path d="M30828 11659
L30828 11259
" />
<path d="M30828 11259
L33428 11259
" />
<path d="M33428 11259
L33428 12059
" />
<path d="M33428 12059
L30828 12059
" />
<path d="M30828 12059
L30828 11659
" />
<path d="M33428 11459
L33228 11259
" />
<path d="M37628 12659
L37428 12659
" />
<path d="M34628 12659
L34828 12659
" />
<path d="M34828 12659
L34828 12259
" />
<path d="M34828 12259
L37428 12259
" />
<path d="M37428 12259
L37428 13059
" />
<path d="M37428 13059
L34828 13059
" />
<path d="M34828 13059
L34828 12659
" />
<path d="M37428 12459
L37228 12259
" />
<path d="M10628 16159
L10628 16359
" />
<path d="M10628 19159
L10628 18959
" />
<path d="M10628 18959
L10228 18959
" />
<path d="M10228 18959
L10228 16359
" />
<path d="M10228 16359
L11028 16359
" />
<path d="M11028 16359
L11028 18959
" />
<path d="M11028 18959
L10628 18959
" />
<path d="M10428 16359
L10228 16559
" />
<path d="M11628 16159
L11628 16359
" />
<path d="M11628 19159
L11628 18959
" />
<path d="M11628 18959
L11228 18959
" />
<path d="M11228 18959
L11228 16359
" />
<path d="M11228 16359
L12028 16359
" />
<path d="M12028 16359
L12028 18959
" />
<path d="M12028 18959
L11628 18959
" />
<path d="M11428 16359
L11228 16559
" />
<path d="M38628 11659
L38428 11659
" />
<path d="M35628 11659
L35828 11659
" />
<path d="M35828 11659
L35828 11259
" />
<path d="M35828 11259
L38428 11259
" />
<path d="M38428 11259
L38428 12059
" />
<path d="M38428 12059
L35828 12059
" />
<path d="M35828 12059
L35828 11659
" />
<path d="M38428 11459
L38228 11259
" />
<path d="M34628 13659
L34428 13659
" />
<path d="M31628 13659
L31828 13659
" />
<path d="M31828 13659
L31828 13259
" />
<path d="M31828 13259
L34428 13259
" />
<path d="M34428 13259
L34428 14059
" />
<path d="M34428 14059
L31828 14059
" />
<path d="M31828 14059
L31828 13659
" />
<path d="M34428 13459
L34228 13259
" />
<path d="M29628 29659
L29828 29659
" />
<path d="M32628 29659
L32428 29659
" />
<path d="M32428 29659
L32428 30059
" />
<path d="M32428 30059
L29828 30059
" />
<path d="M29828 30059
L29828 29259
" />
<path d="M29828 29259
L32428 29259
" />
<path d="M32428 29259
L32428 29659
" />
<path d="M29828 29859
L30028 30059
" />
<path d="M30628 30659
L30828 30659
" />
<path d="M33628 30659
L33428 30659
" />
<path d="M33428 30659
L33428 31059
" />
<path d="M33428 31059
L30828 31059
" />
<path d="M30828 31059
L30828 30259
" />
<path d="M30828 30259
L33428 30259
" />
<path d="M33428 30259
L33428 30659
" />
<path d="M30828 30859
L31028 31059
" />
<path d="M6128 24159
L6128 23959
" />
<path d="M6128 21159
L6128 21359
" />
<path d="M6128 21359
L6528 21359
" />
<path d="M6528 21359
L6528 23959
" />
<path d="M6528 23959
L5728 23959
" />
<path d="M5728 23959
L5728 21359
" />
<path d="M5728 21359
L6128 21359
" />
<path d="M6328 23959
L6528 23759
" />
<path d="M6628 19159
L6628 18959
" />
<path d="M6628 16159
L6628 16359
" />
<path d="M6628 16359
L7028 16359
" />
<path d="M7028 16359
L7028 18959
" />
<path d="M7028 18959
L6228 18959
" />
<path d="M6228 18959
L6228 16359
" />
<path d="M6228 16359
L6628 16359
" />
<path d="M6828 18959
L7028 18759
" />
<path d="M7628 16159
L7628 16359
" />
<path d="M7628 19159
L7628 18959
" />
<path d="M7628 18959
L7228 18959
" />
<path d="M7228 18959
L7228 16359
" />
<path d="M7228 16359
L8028 16359
" />
<path d="M8028 16359
L8028 18959
" />
<path d="M8028 18959
L7628 18959
" />
<path d="M7428 16359
L7228 16559
" />
<path d="M8628 16159
L8628 16359
" />
<path d="M8628 19159
L8628 18959
" />
<path d="M8628 18959
L8228 18959
" />
<path d="M8228 18959
L8228 16359
" />
<path d="M8228 16359
L9028 16359
" />
<path d="M9028 16359
L9028 18959
" />
<path d="M9028 18959
L8628 18959
" />
<path d="M8428 16359
L8228 16559
" />
<path d="M9628 16159
L9628 16359
" />
<path d="M9628 19159
L9628 18959
" />
<path d="M9628 18959
L9228 18959
" />
<path d="M9228 18959
L9228 16359
" />
<path d="M9228 16359
L10028 16359
" />
<path d="M10028 16359
L10028 18959
" />
<path d="M10028 18959
L9628 18959
" />
<path d="M9428 16359
L9228 16559
" />
<path d="M27628 29159
L27628 28959
" />
<path d="M27628 26159
L27628 26359
" />
<path d="M27628 26359
L28028 26359
" />
<path d="M28028 26359
L28028 28959
" />
<path d="M28028 28959
L27228 28959
" />
<path d="M27228 28959
L27228 26359
" />
<path d="M27228 26359
L27628 26359
" />
<path d="M27828 28959
L28028 28759
" />
<path d="M27628 17159
L27628 17359
" />
<path d="M27628 20159
L27628 19959
" />
<path d="M27628 19959
L27228 19959
" />
<path d="M27228 19959
L27228 17359
" />
<path d="M27228 17359
L28028 17359
" />
<path d="M28028 17359
L28028 19959
" />
<path d="M28028 19959
L27628 19959
" />
<path d="M27428 17359
L27228 17559
" />
<path d="M34628 30659
L34828 30659
" />
<path d="M37628 30659
L37428 30659
" />
<path d="M37428 30659
L37428 31059
" />
<path d="M37428 31059
L34828 31059
" />
<path d="M34828 31059
L34828 30259
" />
<path d="M34828 30259
L37428 30259
" />
<path d="M37428 30259
L37428 30659
" />
<path d="M34828 30859
L35028 31059
" />
<path d="M32128 27659
L32328 27659
" />
<path d="M35128 27659
L34928 27659
" />
<path d="M34928 27659
L34928 28059
" />
<path d="M34928 28059
L32328 28059
" />
<path d="M32328 28059
L32328 27259
" />
<path d="M32328 27259
L34928 27259
" />
<path d="M34928 27259
L34928 27659
" />
<path d="M32328 27859
L32528 28059
" />
<path d="M37628 29659
L37428 29659
" />
<path d="M34628 29659
L34828 29659
" />
<path d="M34828 29659
L34828 29259
" />
<path d="M34828 29259
L37428 29259
" />
<path d="M37428 29259
L37428 30059
" />
<path d="M37428 30059
L34828 30059
" />
<path d="M34828 30059
L34828 29659
" />
<path d="M37428 29459
L37228 29259
" />
<path d="M33628 28659
L33828 28659
" />
<path d="M36628 28659
L36428 28659
" />
<path d="M36428 28659
L36428 29059
" />
<path d="M36428 29059
L33828 29059
" />
<path d="M33828 29059
L33828 28259
" />
<path d="M33828 28259
L36428 28259
" />
<path d="M36428 28259
L36428 28659
" />
<path d="M33828 28859
L34028 29059
" />
<path d="M12378 12039
L13878 12039
" />
</g>
<g style="fill:#000000; fill-opacity:0.0; 
stroke:#000000; stroke-width:30; stroke-opacity:1; 
stroke-linecap:round; stroke-linejoin:round;">
<circle cx="13128" cy="13060" r="707.107" /> 
</g>
<g style="fill:#000000; fill-opacity:0.0; 
stroke:#000000; stroke-width:100; stroke-opacity:1; 
stroke-linecap:round; stroke-linejoin:round;">
<path d="M12377.5 12060.4 A1250 1250 0.0 1 0 13878.5 12060.4 " />
</g>
<g style="fill:#000000; fill-opacity:0.0; 
stroke:#000000; stroke-width:60; stroke-opacity:1; 
stroke-linecap:round; stroke-linejoin:round;">
<path d="M13128 13510 A450 450 0.0 0 0 13578 13060 " />
<path d="M13128 12610 A450 450 0.0 0 0 12678 13060 " />
<path d="M13128 13710 A650 650 0.0 0 0 13778 13060 " />
<path d="M13128 12410 A650 650 0.0 0 0 12478 13060 " />
<path d="M13128 13910 A850 850 0.0 0 0 13978 13060 " />
<path d="M13128 12210 A850 850 0.0 0 0 12278 13060 " />
</g>
<g style="fill:#000000; fill-opacity:0.0; 
stroke:#000000; stroke-width:80; stroke-opacity:1; 
stroke-linecap:round; stroke-linejoin:round;">
<path d="M4878 12039
L6378 12039
" />
</g>
<g style="fill:#000000; fill-opacity:0.0; 
stroke:#000000; stroke-width:30; stroke-opacity:1; 
stroke-linecap:round; stroke-linejoin:round;">
<circle cx="5628" cy="13060" r="707.107" /> 
</g>
<g style="fill:#000000; fill-opacity:0.0; 
stroke:#000000; stroke-width:100; stroke-opacity:1; 
stroke-linecap:round; stroke-linejoin:round;">
<path d="M4877.48 12060.4 A1250 1250 0.0 1 0 6378.53 12060.4 " />
</g>
<g style="fill:#000000; fill-opacity:0.0; 
stroke:#000000; stroke-width:60; stroke-opacity:1; 
stroke-linecap:round; stroke-linejoin:round;">
<path d="M5628 13510 A450 450 0.0 0 0 6078 13060 " />
<path d="M5628 12610 A450 450 0.0 0 0 5178 13060 " />
<path d="M5628 13710 A650 650 0.0 0 0 6278 13060 " />
<path d="M5628 12410 A650 650 0.0 0 0 4978 13060 " />
<path d="M5628 13910 A850 850 0.0 0 0 6478 13060 " />
<path d="M5628 12210 A850 850 0.0 0 0 4778 13060 " />
</g>
<g style="fill:#000000; fill-opacity:0.0; 
stroke:#000000; stroke-width:80; stroke-opacity:1; 
stroke-linecap:round; stroke-linejoin:round;">
<path d="M7378 12039
L8878 12039
" />
</g>
<g style="fill:#000000; fill-opacity:0.0; 
stroke:#000000; stroke-width:30; stroke-opacity:1; 
stroke-linecap:round; stroke-linejoin:round;">
<circle cx="8128" cy="13060" r="707.107" /> 
</g>
<g style="fill:#000000; fill-opacity:0.0; 
stroke:#000000; stroke-width:100; stroke-opacity:1; 
stroke-linecap:round; stroke-linejoin:round;">
<path d="M7377.48 12060.4 A1250 1250 0.0 1 0 8878.53 12060.4 " />
</g>
<g style="fill:#000000; fill-opacity:0.0; 
stroke:#000000; stroke-width:60; stroke-opacity:1; 
stroke-linecap:round; stroke-linejoin:round;">
<path d="M8128 13510 A450 450 0.0 0 0 8578 13060 " />
<path d="M8128 12610 A450 450 0.0 0 0 7678 13060 " />
<path d="M8128 13710 A650 650 0.0 0 0 8778 13060 " />
<path d="M8128 12410 A650 650 0.0 0 0 7478 13060 " />
<path d="M8128 13910 A850 850 0.0 0 0 8978 13060 " />
<path d="M8128 12210 A850 850 0.0 0 0 7278 13060 " />
</g>
<g style="fill:#000000; fill-opacity:0.0; 
stroke:#000000; stroke-width:80; stroke-opacity:1; 
stroke-linecap:round; stroke-linejoin:round;">
<path d="M9878 12039
L11378 12039
" />
</g>
<g style="fill:#000000; fill-opacity:0.0; 
stroke:#000000; stroke-width:30; stroke-opacity:1; 
stroke-linecap:round; stroke-linejoin:round;">
<circle cx="10628" cy="13060" r="707.107" /> 
</g>
<g style="fill:#000000; fill-opacity:0.0; 
stroke:#000000; stroke-width:100; stroke-opacity:1; 
stroke-linecap:round; stroke-linejoin:round;">
<path d="M9877.48 12060.4 A1250 1250 0.0 1 0 11378.5 12060.4 " />
</g>
<g style="fill:#000000; fill-opacity:0.0; 
stroke:#000000; stroke-width:60; stroke-opacity:1; 
stroke-linecap:round; stroke-linejoin:round;">
<path d="M10628 13510 A450 450 0.0 0 0 11078 13060 " />
<path d="M10628 12610 A450 450 0.0 0 0 10178 13060 " />
<path d="M10628 13710 A650 650 0.0 0 0 11278 13060 " />
<path d="M10628 12410 A650 650 0.0 0 0 9978 13060 " />
<path d="M10628 13910 A850 850 0.0 0 0 11478 13060 " />
<path d="M10628 12210 A850 850 0.0 0 0 9778 13060 " />
</g>
<g style="fill:#000000; fill-opacity:0.0; 
stroke:#000000; stroke-width:80; stroke-opacity:1; 
stroke-linecap:round; stroke-linejoin:round;">
<path d="M14878 12039
L16378 12039
" />
</g>
<g style="fill:#000000; fill-opacity:0.0; 
stroke:#000000; stroke-width:30; stroke-opacity:1; 
stroke-linecap:round; stroke-linejoin:round;">
<circle cx="15628" cy="13060" r="707.107" /> 
</g>
<g style="fill:#000000; fill-opacity:0.0; 
stroke:#000000; stroke-width:100; stroke-opacity:1; 
stroke-linecap:round; stroke-linejoin:round;">
<path d="M14877.5 12060.4 A1250 1250 0.0 1 0 16378.5 12060.4 " />
</g>
<g style="fill:#000000; fill-opacity:0.0; 
stroke:#000000; stroke-width:60; stroke-opacity:1; 
stroke-linecap:round; stroke-linejoin:round;">
<path d="M15628 13510 A450 450 0.0 0 0 16078 13060 " />
<path d="M15628 12610 A450 450 0.0 0 0 15178 13060 " />
<path d="M15628 13710 A650 650 0.0 0 0 16278 13060 " />
<path d="M15628 12410 A650 650 0.0 0 0 14978 13060 " />
<path d="M15628 13910 A850 850 0.0 0 0 16478 13060 " />
<path d="M15628 12210 A850 850 0.0 0 0 14778 13060 " />
</g>
<g style="fill:#000000; fill-opacity:0.0; 
stroke:#000000; stroke-width:125; stroke-opacity:1; 
stroke-linecap:round; stroke-linejoin:round;">
<path d="M19378 13159
L21878 13159
" />
<path d="M19378 15159
L21878 15159
" />
<path d="M21878 15160 A1000 1000 0.0 0 0 22878 14160 " />
<path d="M22878 14160 A1000 1000 0.0 0 0 21878 13160 " />
<path d="M18378 14160 A1000 1000 0.0 0 0 19378 15160 " />
<path d="M19378 13160 A1000 1000 0.0 0 0 18378 14160 " />
</g>
<g style="fill:#000000; fill-opacity:0.0; 
stroke:#000000; stroke-width:150; stroke-opacity:1; 
stroke-linecap:round; stroke-linejoin:round;">
<path d="M6628 23659
L7128 23659
" />
<path d="M7128 23659
L7128 22659
" />
<path d="M7128 22659
L6628 22659
" />
<path d="M6628 25659
L27628 25659
" />
<path d="M27628 25659
L27628 20659
" />
<path d="M27628 20659
L6628 20659
" />
<path d="M6628 20659
L6628 25659
" />
<path d="M29628 25659
L37628 25659
" />
<path d="M37628 23659
L29628 23659
" />
<path d="M29628 23659
L29628 25659
" />
<path d="M29628 25159
L30128 25159
" />
<path d="M30128 25159
L30128 24159
" />
<path d="M30128 24159
L29628 24159
" />
<path d="M37628 25659
L37628 23659
" />
<path d="M38628 16659
L30628 16659
" />
<path d="M30628 18659
L38628 18659
" />
<path d="M38628 18659
L38628 16659
" />
<path d="M38628 17159
L38128 17159
" />
<path d="M38128 17159
L38128 18159
" />
<path d="M38128 18159
L38628 18159
" />
<path d="M30628 16659
L30628 18659
" />
</g>
<g style="fill:#000000; fill-opacity:0.0; 
stroke:#000000; stroke-width:120; stroke-opacity:1; 
stroke-linecap:round; stroke-linejoin:round;">
<path d="M7278 31759
L20078 31759
" />
<path d="M20078 31759
L20078 38759
" />
<path d="M20078 38759
L7278 38759
" />
<path d="M7278 38759
L7278 31759
" />
<path d="M10078 38759
L10078 35759
" />
<path d="M10078 35759
L17278 35759
" />
<path d="M17278 35759
L17278 38759
" />
<path d="M10678 38759
L10678 42159
" />
<path d="M10678 42159
L16678 42159
" />
<path d="M16678 42159
L16678 38759
" />
<path d="M19978 10559
L7178 10559
" />
<path d="M7178 10559
L7178 3559
" />
<path d="M7178 3559
L19978 3559
" />
<path d="M19978 3559
L19978 10559
" />
<path d="M17178 3559
L17178 6559
" />
<path d="M17178 6559
L9978 6559
" />
<path d="M9978 6559
L9978 3559
" />
<path d="M16578 3559
L16578 159
" />
<path d="M16578 159
L10578 159
" />
<path d="M10578 159
L10578 3559
" />
<path d="M39978 10559
L27178 10559
" />
<path d="M27178 10559
L27178 3559
" />
<path d="M27178 3559
L39978 3559
" />
<path d="M39978 3559
L39978 10559
" />
<path d="M37178 3559
L37178 6559
" />
<path d="M37178 6559
L29978 6559
" />
<path d="M29978 6559
L29978 3559
" />
<path d="M36578 3559
L36578 159
" />
<path d="M36578 159
L30578 159
" />
<path d="M30578 159
L30578 3559
" />
<path d="M27278 31759
L40078 31759
" />
<path d="M40078 31759
L40078 38759
" />
<path d="M40078 38759
L27278 38759
" />
<path d="M27278 38759
L27278 31759
" />
<path d="M30078 38759
L30078 35759
" />
<path d="M30078 35759
L37278 35759
" />
<path d="M37278 35759
L37278 38759
" />
<path d="M30678 38759
L30678 42159
" />
<path d="M30678 42159
L36678 42159
" />
<path d="M36678 42159
L36678 38759
" />
<path d="M2128 24159
L2428 24159
" />
<path d="M2428 24159
L2428 23759
" />
<path d="M2428 23759
L4828 23759
" />
<path d="M4828 23759
L4828 24159
" />
<path d="M4828 24159
L5128 24159
" />
<path d="M4828 24159
L4828 24559
" />
<path d="M4828 24559
L2428 24559
" />
<path d="M2428 24559
L2428 24159
" />
<path d="M2628 23759
L2628 24559
" />
<path d="M2728 24559
L2728 23759
" />
<path d="M2628 11659
L2928 11659
" />
<path d="M2928 11659
L2928 11259
" />
<path d="M2928 11259
L5328 11259
" />
<path d="M5328 11259
L5328 11659
" />
<path d="M5328 11659
L5628 11659
" />
<path d="M5328 11659
L5328 12059
" />
<path d="M5328 12059
L2928 12059
" />
<path d="M2928 12059
L2928 11659
" />
<path d="M3128 11259
L3128 12059
" />
<path d="M3228 12059
L3228 11259
" />
</g>
<g style="fill:#000000; fill-opacity:0.0; 
stroke:#000000; stroke-width:50; stroke-opacity:1; 
stroke-linecap:round; stroke-linejoin:round;">
<circle cx="3128" cy="22660" r="1001.25" /> 
<circle cx="28628" cy="30660" r="1001.25" /> 
</g>
<g style="fill:#000000; fill-opacity:0.0; 
stroke:#000000; stroke-width:120; stroke-opacity:1; 
stroke-linecap:round; stroke-linejoin:round;">
<path d="M18108 26659
L16128 26659
" />
<path d="M16128 26659
L16128 27659
" />
<path d="M16128 27659
L18128 27659
" />
<path d="M18128 27659
L18128 26659
" />
<path d="M18128 26909
L17878 26659
" />
<path d="M5608 24659
L3628 24659
" />
<path d="M3628 24659
L3628 25659
" />
<path d="M3628 25659
L5628 25659
" />
<path d="M5628 25659
L5628 24659
" />
<path d="M5628 24909
L5378 24659
" />
<path d="M1648 25659
L3628 25659
" />
<path d="M3628 25659
L3628 24659
" />
<path d="M3628 24659
L1628 24659
" />
<path d="M1628 24659
L1628 25659
" />
<path d="M1628 25409
L1878 25659
" />
<path d="M16148 19659
L18128 19659
" />
<path d="M18128 19659
L18128 18659
" />
<path d="M18128 18659
L16128 18659
" />
<path d="M16128 18659
L16128 19659
" />
<path d="M16128 19409
L16378 19659
" />
<path d="M38128 16679
L38128 18659
" />
<path d="M38128 18659
L39128 18659
" />
<path d="M39128 18659
L39128 16659
" />
<path d="M39128 16659
L38128 16659
" />
<path d="M38378 16659
L38128 16909
" />
<path d="M17108 27659
L15128 27659
" />
<path d="M15128 27659
L15128 28659
" />
<path d="M15128 28659
L17128 28659
" />
<path d="M17128 28659
L17128 27659
" />
<path d="M17128 27909
L16878 27659
" />
<path d="M18128 21179
L18128 23159
" />
<path d="M18128 23159
L19128 23159
" />
<path d="M19128 23159
L19128 21159
" />
<path d="M19128 21159
L18128 21159
" />
<path d="M18378 21159
L18128 21409
" />
<path d="M19128 21179
L19128 23159
" />
<path d="M19128 23159
L20128 23159
" />
<path d="M20128 23159
L20128 21159
" />
<path d="M20128 21159
L19128 21159
" />
<path d="M19378 21159
L19128 21409
" />
<path d="M38128 23679
L38128 25659
" />
<path d="M38128 25659
L39128 25659
" />
<path d="M39128 25659
L39128 23659
" />
<path d="M39128 23659
L38128 23659
" />
<path d="M38378 23659
L38128 23909
" />
<path d="M6128 28679
L6128 30659
" />
<path d="M6128 30659
L7128 30659
" />
<path d="M7128 30659
L7128 28659
" />
<path d="M7128 28659
L6128 28659
" />
<path d="M6378 28659
L6128 28909
" />
</g>
<g style="fill:#000000; fill-opacity:0.0; 
stroke:#000000; stroke-width:150; stroke-opacity:1; 
stroke-linecap:round; stroke-linejoin:round;">
<path d="M1553 10931
L1553 7387
" />
<path d="M175 10931
L175 7387
" />
<path d="M175 7387
L5884 7387
" />
<path d="M5884 7387
L5884 10931
" />
<path d="M5884 10931
L175 10931
" />
</g>
<g style="fill:#000000; fill-opacity:0.0; 
stroke:#000000; stroke-width:120; stroke-opacity:1; 
stroke-linecap:round; stroke-linejoin:round;">
<circle cx="2628" cy="14160" r="1750" /> 
<path d="M2628 26159
L2628 28159
" />
<path d="M3628 26159
L3628 28159
" />
<path d="M4628 26159
L4628 28159
" />
<path d="M2128 28159
L5628 28159
" />
<path d="M5628 28159
L5628 34159
" />
<path d="M5628 34159
L1628 34159
" />
<path d="M2128 28159
L1628 28159
" />
<path d="M5128 31159
L1628 31159
" />
<path d="M5128 31159
L5628 31159
" />
<path d="M1628 28159
L1628 34159
" />
</g>
<g style="fill:#000000; fill-opacity:0.0; 
stroke:#000000; stroke-width:50; stroke-opacity:1; 
stroke-linecap:round; stroke-linejoin:round;">
<circle cx="38128" cy="21160" r="1001.25" /> 
</g>
<g style="fill:#000000; fill-opacity:0.0; 
stroke:#000000; stroke-width:100; stroke-opacity:1; 
stroke-linecap:round; stroke-linejoin:round;">
<circle cx="3628" cy="18660" r="1802.78" /> 
<path d="M1128 16159
L1128 21159
" />
<path d="M1128 21159
L6128 21159
" />
<path d="M6128 21159
L6128 16159
" />
<path d="M6128 16159
L1128 16159
" />
</g>
<g style="fill:#000000; fill-opacity:0.0; 
stroke:#000000; stroke-width:39.3701; stroke-opacity:1; 
stroke-linecap:round; stroke-linejoin:round;">
</g>
<g style="fill:#000000; fill-opacity:1.0; 
stroke:#000000; stroke-width:39.3701; stroke-opacity:1; 
stroke-linecap:round; stroke-linejoin:round;">
<polyline style="fill-rule:evenodd;"
points="7247,27779
7247,28540
8008,28540
8008,27779
7247,27779
" /> 
<circle cx="8628" cy="28160" r="380.315" /> 
<circle cx="9628" cy="28160" r="380.315" /> 
<circle cx="10628" cy="28160" r="380.315" /> 
<circle cx="11628" cy="28160" r="380.315" /> 
<circle cx="12628" cy="28160" r="380.315" /> 
<circle cx="13628" cy="28160" r="380.315" /> 
<circle cx="14628" cy="28160" r="380.315" /> 
<polyline style="fill-rule:evenodd;"
points="7247,28779
7247,29540
8008,29540
8008,28779
7247,28779
" /> 
<circle cx="8628" cy="29160" r="380.315" /> 
<circle cx="9628" cy="29160" r="380.315" /> 
<circle cx="10628" cy="29160" r="380.315" /> 
<circle cx="11628" cy="29160" r="380.315" /> 
<circle cx="12628" cy="29160" r="380.315" /> 
<circle cx="13628" cy="29160" r="380.315" /> 
<circle cx="14628" cy="29160" r="380.315" /> 
<polyline style="fill-rule:evenodd;"
points="7247,29779
7247,30540
8008,30540
8008,29779
7247,29779
" /> 
<circle cx="8628" cy="30160" r="380.315" /> 
<circle cx="9628" cy="30160" r="380.315" /> 
<circle cx="10628" cy="30160" r="380.315" /> 
<circle cx="11628" cy="30160" r="380.315" /> 
<circle cx="12628" cy="30160" r="380.315" /> 
<circle cx="13628" cy="30160" r="380.315" /> 
<circle cx="14628" cy="30160" r="380.315" /> 
<polyline style="fill-rule:evenodd;"
points="26008,28540
26008,27779
25247,27779
25247,28540
26008,28540
" /> 
<circle cx="24628" cy="28160" r="380.315" /> 
<circle cx="23628" cy="28160" r="380.315" /> 
<circle cx="22628" cy="28160" r="380.315" /> 
<circle cx="21628" cy="28160" r="380.315" /> 
<circle cx="20628" cy="28160" r="380.315" /> 
<circle cx="19628" cy="28160" r="380.315" /> 
<circle cx="18628" cy="28160" r="380.315" /> 
<polyline style="fill-rule:evenodd;"
points="26008,29540
26008,28779
25247,28779
25247,29540
26008,29540
" /> 
<circle cx="24628" cy="29160" r="380.315" /> 
<circle cx="23628" cy="29160" r="380.315" /> 
<circle cx="22628" cy="29160" r="380.315" /> 
<circle cx="21628" cy="29160" r="380.315" /> 
<circle cx="20628" cy="29160" r="380.315" /> 
<circle cx="19628" cy="29160" r="380.315" /> 
<circle cx="18628" cy="29160" r="380.315" /> 
<polyline style="fill-rule:evenodd;"
points="26008,30540
26008,29779
25247,29779
25247,30540
26008,30540
" /> 
<circle cx="24628" cy="30160" r="380.315" /> 
<circle cx="23628" cy="30160" r="380.315" /> 
<circle cx="22628" cy="30160" r="380.315" /> 
<circle cx="21628" cy="30160" r="380.315" /> 
<circle cx="20628" cy="30160" r="380.315" /> 
<circle cx="19628" cy="30160" r="380.315" /> 
<circle cx="18628" cy="30160" r="380.315" /> 
<polyline style="fill-rule:evenodd;"
points="18008,16540
18008,15779
17247,15779
17247,16540
18008,16540
" /> 
<circle cx="16628" cy="16160" r="380.315" /> 
<circle cx="15628" cy="16160" r="380.315" /> 
<circle cx="14628" cy="16160" r="380.315" /> 
<circle cx="13628" cy="16160" r="380.315" /> 
<circle cx="12628" cy="16160" r="380.315" /> 
<polyline style="fill-rule:evenodd;"
points="23247,17779
23247,18540
24008,18540
24008,17779
23247,17779
" /> 
<circle cx="24628" cy="18160" r="380.315" /> 
<circle cx="25628" cy="18160" r="380.315" /> 
<circle cx="26628" cy="18160" r="380.315" /> 
<polyline style="fill-rule:evenodd;"
points="23247,15779
23247,16540
24008,16540
24008,15779
23247,15779
" /> 
<circle cx="24628" cy="16160" r="380.315" /> 
<circle cx="25628" cy="16160" r="380.315" /> 
<circle cx="26628" cy="16160" r="380.315" /> 
<polyline style="fill-rule:evenodd;"
points="30247,29040
31008,29040
31008,28279
30247,28279
30247,29040
" /> 
<circle cx="30628" cy="27660" r="380.315" /> 
<polyline style="fill-rule:evenodd;"
points="38008,13279
37247,13279
37247,14040
38008,14040
38008,13279
" /> 
<circle cx="37628" cy="14660" r="380.315" /> 
<polyline style="fill-rule:evenodd;"
points="37247,29040
38008,29040
38008,28279
37247,28279
37247,29040
" /> 
<circle cx="37628" cy="27660" r="380.315" /> 
<polyline style="fill-rule:evenodd;"
points="31008,13279
30247,13279
30247,14040
31008,14040
31008,13279
" /> 
<circle cx="30628" cy="14660" r="380.315" /> 
<circle cx="30628" cy="12660" r="380.315" /> 
<circle cx="33628" cy="12660" r="380.315" /> 
<circle cx="36128" cy="14660" r="380.315" /> 
<circle cx="33128" cy="14660" r="380.315" /> 
<circle cx="33628" cy="11660" r="380.315" /> 
<circle cx="30628" cy="11660" r="380.315" /> 
<circle cx="37628" cy="12660" r="380.315" /> 
<circle cx="34628" cy="12660" r="380.315" /> 
<circle cx="10628" cy="16160" r="380.315" /> 
<circle cx="10628" cy="19160" r="380.315" /> 
<circle cx="11628" cy="16160" r="380.315" /> 
<circle cx="11628" cy="19160" r="380.315" /> 
<circle cx="38628" cy="11660" r="380.315" /> 
<circle cx="35628" cy="11660" r="380.315" /> 
<circle cx="34628" cy="13660" r="380.315" /> 
<circle cx="31628" cy="13660" r="380.315" /> 
<circle cx="29628" cy="29660" r="380.315" /> 
<circle cx="32628" cy="29660" r="380.315" /> 
<circle cx="30628" cy="30660" r="380.315" /> 
<circle cx="33628" cy="30660" r="380.315" /> 
<circle cx="6128" cy="24160" r="380.315" /> 
<circle cx="6128" cy="21160" r="380.315" /> 
<circle cx="6628" cy="19160" r="380.315" /> 
<circle cx="6628" cy="16160" r="380.315" /> 
<circle cx="7628" cy="16160" r="380.315" /> 
<circle cx="7628" cy="19160" r="380.315" /> 
<circle cx="8628" cy="16160" r="380.315" /> 
<circle cx="8628" cy="19160" r="380.315" /> 
<circle cx="9628" cy="16160" r="380.315" /> 
<circle cx="9628" cy="19160" r="380.315" /> 
<circle cx="27628" cy="29160" r="380.315" /> 
<circle cx="27628" cy="26160" r="380.315" /> 
<circle cx="27628" cy="17160" r="380.315" /> 
<circle cx="27628" cy="20160" r="380.315" /> 
<circle cx="34628" cy="30660" r="380.315" /> 
<circle cx="37628" cy="30660" r="380.315" /> 
<circle cx="32128" cy="27660" r="380.315" /> 
<circle cx="35128" cy="27660" r="380.315" /> 
<circle cx="37628" cy="29660" r="380.315" /> 
<circle cx="34628" cy="29660" r="380.315" /> 
<circle cx="33628" cy="28660" r="380.315" /> 
<circle cx="36628" cy="28660" r="380.315" /> 
<circle cx="13128" cy="13660" r="380.315" /> 
<circle cx="13128" cy="12660" r="380.315" /> 
<circle cx="5628" cy="13660" r="380.315" /> 
<circle cx="5628" cy="12660" r="380.315" /> 
<circle cx="8128" cy="13660" r="380.315" /> 
<circle cx="8128" cy="12660" r="380.315" /> 
<circle cx="10628" cy="13660" r="380.315" /> 
<circle cx="10628" cy="12660" r="380.315" /> 
<circle cx="15628" cy="13660" r="380.315" /> 
<circle cx="15628" cy="12660" r="380.315" /> 
<circle cx="19628" cy="14160" r="380.315" /> 
<circle cx="21628" cy="14160" r="380.315" /> 
<polyline style="fill-rule:evenodd;"
points="7247,19779
7247,20540
8008,20540
8008,19779
7247,19779
" /> 
<circle cx="8628" cy="20160" r="380.315" /> 
<circle cx="9628" cy="20160" r="380.315" /> 
<circle cx="10628" cy="20160" r="380.315" /> 
<circle cx="11628" cy="20160" r="380.315" /> 
<circle cx="12628" cy="20160" r="380.315" /> 
<circle cx="13628" cy="20160" r="380.315" /> 
<circle cx="14628" cy="20160" r="380.315" /> 
<circle cx="15628" cy="20160" r="380.315" /> 
<circle cx="16628" cy="20160" r="380.315" /> 
<circle cx="17628" cy="20160" r="380.315" /> 
<circle cx="18628" cy="20160" r="380.315" /> 
<circle cx="19628" cy="20160" r="380.315" /> 
<circle cx="20628" cy="20160" r="380.315" /> 
<circle cx="21628" cy="20160" r="380.315" /> 
<circle cx="22628" cy="20160" r="380.315" /> 
<circle cx="23628" cy="20160" r="380.315" /> 
<circle cx="24628" cy="20160" r="380.315" /> 
<circle cx="25628" cy="20160" r="380.315" /> 
<circle cx="26628" cy="20160" r="380.315" /> 
<circle cx="26628" cy="26160" r="380.315" /> 
<circle cx="25628" cy="26160" r="380.315" /> 
<circle cx="24628" cy="26160" r="380.315" /> 
<circle cx="23628" cy="26160" r="380.315" /> 
<circle cx="22628" cy="26160" r="380.315" /> 
<circle cx="21628" cy="26160" r="380.315" /> 
<circle cx="20628" cy="26160" r="380.315" /> 
<circle cx="19628" cy="26160" r="380.315" /> 
<circle cx="18628" cy="26160" r="380.315" /> 
<circle cx="17628" cy="26160" r="380.315" /> 
<circle cx="16628" cy="26160" r="380.315" /> 
<circle cx="15628" cy="26160" r="380.315" /> 
<circle cx="14628" cy="26160" r="380.315" /> 
<circle cx="13628" cy="26160" r="380.315" /> 
<circle cx="12628" cy="26160" r="380.315" /> 
<circle cx="11628" cy="26160" r="380.315" /> 
<circle cx="10628" cy="26160" r="380.315" /> 
<circle cx="9628" cy="26160" r="380.315" /> 
<circle cx="8628" cy="26160" r="380.315" /> 
<circle cx="7628" cy="26160" r="380.315" /> 
<polyline style="fill-rule:evenodd;"
points="30247,22779
30247,23540
31008,23540
31008,22779
30247,22779
" /> 
<circle cx="31628" cy="23160" r="380.315" /> 
<circle cx="32628" cy="23160" r="380.315" /> 
<circle cx="33628" cy="23160" r="380.315" /> 
<circle cx="34628" cy="23160" r="380.315" /> 
<circle cx="35628" cy="23160" r="380.315" /> 
<circle cx="36628" cy="23160" r="380.315" /> 
<circle cx="36628" cy="26160" r="380.315" /> 
<circle cx="35628" cy="26160" r="380.315" /> 
<circle cx="34628" cy="26160" r="380.315" /> 
<circle cx="33628" cy="26160" r="380.315" /> 
<circle cx="32628" cy="26160" r="380.315" /> 
<circle cx="31628" cy="26160" r="380.315" /> 
<circle cx="30628" cy="26160" r="380.315" /> 
<polyline style="fill-rule:evenodd;"
points="38008,19540
38008,18779
37247,18779
37247,19540
38008,19540
" /> 
<circle cx="36628" cy="19160" r="380.315" /> 
<circle cx="35628" cy="19160" r="380.315" /> 
<circle cx="34628" cy="19160" r="380.315" /> 
<circle cx="33628" cy="19160" r="380.315" /> 
<circle cx="32628" cy="19160" r="380.315" /> 
<circle cx="31628" cy="19160" r="380.315" /> 
<circle cx="31628" cy="16160" r="380.315" /> 
<circle cx="32628" cy="16160" r="380.315" /> 
<circle cx="33628" cy="16160" r="380.315" /> 
<circle cx="34628" cy="16160" r="380.315" /> 
<circle cx="35628" cy="16160" r="380.315" /> 
<circle cx="36628" cy="16160" r="380.315" /> 
<circle cx="37628" cy="16160" r="380.315" /> 
</g>
<g style="fill:#000000; fill-opacity:1.0; 
stroke:#000000; stroke-width:0; stroke-opacity:1; 
stroke-linecap:round; stroke-linejoin:round;">
</g>
<g style="fill:#000000; fill-opacity:1.0; 
stroke:#000000; stroke-width:39.3701; stroke-opacity:1; 
stroke-linecap:round; stroke-linejoin:round;">
<polyline style="fill-rule:evenodd;"
points="17878,32159
17878,33759
19478,33759
19478,32159
17878,32159
" /> 
</g>
<g style="fill:#000000; fill-opacity:1.0; 
stroke:#000000; stroke-width:0; stroke-opacity:1; 
stroke-linecap:round; stroke-linejoin:round;">
</g>
<g style="fill:#000000; fill-opacity:1.0; 
stroke:#000000; stroke-width:39.3701; stroke-opacity:1; 
stroke-linecap:round; stroke-linejoin:round;">
<polyline style="fill-rule:evenodd;"
points="8678,32028
7546,33159
8678,34291
9809,33159
8678,32028
" /> 
<polyline style="fill-rule:evenodd;"
points="15447,31779
15447,32540
16208,32540
16208,31779
15447,31779
" /> 
<circle cx="14728" cy="32160" r="380.315" /> 
<circle cx="13628" cy="32160" r="380.315" /> 
<circle cx="12578" cy="32160" r="380.315" /> 
<circle cx="11478" cy="32160" r="380.315" /> 
<circle cx="12028" cy="33160" r="380.315" /> 
<circle cx="13128" cy="33160" r="380.315" /> 
<circle cx="14178" cy="33160" r="380.315" /> 
<circle cx="15278" cy="33160" r="380.315" /> 
</g>
<g style="fill:#000000; fill-opacity:1.0; 
stroke:#000000; stroke-width:0; stroke-opacity:1; 
stroke-linecap:round; stroke-linejoin:round;">
</g>
<g style="fill:#000000; fill-opacity:1.0; 
stroke:#000000; stroke-width:39.3701; stroke-opacity:1; 
stroke-linecap:round; stroke-linejoin:round;">
<polyline style="fill-rule:evenodd;"
points="8578,10291
9709,9159
8578,8028
7446,9159
8578,10291
" /> 
</g>
<g style="fill:#000000; fill-opacity:1.0; 
stroke:#000000; stroke-width:0; stroke-opacity:1; 
stroke-linecap:round; stroke-linejoin:round;">
</g>
<g style="fill:#000000; fill-opacity:1.0; 
stroke:#000000; stroke-width:39.3701; stroke-opacity:1; 
stroke-linecap:round; stroke-linejoin:round;">
<polyline style="fill-rule:evenodd;"
points="19378,9959
19378,8359
17778,8359
17778,9959
19378,9959
" /> 
<polyline style="fill-rule:evenodd;"
points="11808,10540
11808,9779
11047,9779
11047,10540
11808,10540
" /> 
<circle cx="12528" cy="10160" r="380.315" /> 
<circle cx="13628" cy="10160" r="380.315" /> 
<circle cx="14678" cy="10160" r="380.315" /> 
<circle cx="15778" cy="10160" r="380.315" /> 
<circle cx="15228" cy="9160" r="380.315" /> 
<circle cx="14128" cy="9160" r="380.315" /> 
<circle cx="13078" cy="9160" r="380.315" /> 
<circle cx="11978" cy="9160" r="380.315" /> 
</g>
<g style="fill:#000000; fill-opacity:1.0; 
stroke:#000000; stroke-width:0; stroke-opacity:1; 
stroke-linecap:round; stroke-linejoin:round;">
</g>
<g style="fill:#000000; fill-opacity:1.0; 
stroke:#000000; stroke-width:39.3701; stroke-opacity:1; 
stroke-linecap:round; stroke-linejoin:round;">
<polyline style="fill-rule:evenodd;"
points="29378,10159
29378,8559
27778,8559
27778,10159
29378,10159
" /> 
</g>
<g style="fill:#000000; fill-opacity:1.0; 
stroke:#000000; stroke-width:0; stroke-opacity:1; 
stroke-linecap:round; stroke-linejoin:round;">
</g>
<g style="fill:#000000; fill-opacity:1.0; 
stroke:#000000; stroke-width:39.3701; stroke-opacity:1; 
stroke-linecap:round; stroke-linejoin:round;">
<polyline style="fill-rule:evenodd;"
points="38578,10291
39709,9159
38578,8028
37446,9159
38578,10291
" /> 
<polyline style="fill-rule:evenodd;"
points="31808,10540
31808,9779
31047,9779
31047,10540
31808,10540
" /> 
<circle cx="32528" cy="10160" r="380.315" /> 
<circle cx="33628" cy="10160" r="380.315" /> 
<circle cx="34678" cy="10160" r="380.315" /> 
<circle cx="35778" cy="10160" r="380.315" /> 
<circle cx="35228" cy="9160" r="380.315" /> 
<circle cx="34128" cy="9160" r="380.315" /> 
<circle cx="33078" cy="9160" r="380.315" /> 
<circle cx="31978" cy="9160" r="380.315" /> 
</g>
<g style="fill:#000000; fill-opacity:1.0; 
stroke:#000000; stroke-width:0; stroke-opacity:1; 
stroke-linecap:round; stroke-linejoin:round;">
</g>
<g style="fill:#000000; fill-opacity:1.0; 
stroke:#000000; stroke-width:39.3701; stroke-opacity:1; 
stroke-linecap:round; stroke-linejoin:round;">
<polyline style="fill-rule:evenodd;"
points="38678,32028
37546,33159
38678,34291
39809,33159
38678,32028
" /> 
</g>
<g style="fill:#000000; fill-opacity:1.0; 
stroke:#000000; stroke-width:0; stroke-opacity:1; 
stroke-linecap:round; stroke-linejoin:round;">
</g>
<g style="fill:#000000; fill-opacity:1.0; 
stroke:#000000; stroke-width:39.3701; stroke-opacity:1; 
stroke-linecap:round; stroke-linejoin:round;">
<polyline style="fill-rule:evenodd;"
points="27878,32159
27878,33759
29478,33759
29478,32159
27878,32159
" /> 
<polyline style="fill-rule:evenodd;"
points="31097,31779
31097,32540
31858,32540
31858,31779
31097,31779
" /> 
<circle cx="32578" cy="32160" r="380.315" /> 
<circle cx="33628" cy="32160" r="380.315" /> 
<circle cx="34728" cy="32160" r="380.315" /> 
<circle cx="35828" cy="32160" r="380.315" /> 
<circle cx="32028" cy="33160" r="380.315" /> 
<circle cx="33128" cy="33160" r="380.315" /> 
<circle cx="34178" cy="33160" r="380.315" /> 
<circle cx="35278" cy="33160" r="380.315" /> 
<polyline style="fill-rule:evenodd;"
points="2508,24540
2508,23779
1747,23779
1747,24540
2508,24540
" /> 
<circle cx="5128" cy="24160" r="380.315" /> 
<polyline style="fill-rule:evenodd;"
points="3008,12040
3008,11279
2247,11279
2247,12040
3008,12040
" /> 
<circle cx="5628" cy="11660" r="380.315" /> 
<polyline style="fill-rule:evenodd;"
points="4008,23040
4008,22279
3247,22279
3247,23040
4008,23040
" /> 
<circle cx="2628" cy="22660" r="380.315" /> 
<polyline style="fill-rule:evenodd;"
points="29008,29779
28247,29779
28247,30540
29008,30540
29008,29779
" /> 
<circle cx="28628" cy="31160" r="380.315" /> 
<circle cx="17628" cy="27160" r="380.315" /> 
<circle cx="16628" cy="27160" r="380.315" /> 
<circle cx="5128" cy="25160" r="380.315" /> 
<circle cx="4128" cy="25160" r="380.315" /> 
<circle cx="2128" cy="25160" r="380.315" /> 
<circle cx="3128" cy="25160" r="380.315" /> 
<circle cx="16628" cy="19160" r="380.315" /> 
<circle cx="17628" cy="19160" r="380.315" /> 
<circle cx="38628" cy="17160" r="380.315" /> 
<circle cx="38628" cy="18160" r="380.315" /> 
<circle cx="16628" cy="28160" r="380.315" /> 
<circle cx="15628" cy="28160" r="380.315" /> 
<circle cx="18628" cy="21660" r="380.315" /> 
<circle cx="18628" cy="22660" r="380.315" /> 
<circle cx="19628" cy="21660" r="380.315" /> 
<circle cx="19628" cy="22660" r="380.315" /> 
<circle cx="38628" cy="24160" r="380.315" /> 
<circle cx="38628" cy="25160" r="380.315" /> 
<circle cx="6628" cy="29160" r="380.315" /> 
<circle cx="6628" cy="30160" r="380.315" /> 
<polyline style="fill-rule:evenodd;"
points="4588,8179
4588,10140
6549,10140
6549,8179
4588,8179
" /> 
<polyline style="fill-rule:evenodd;"
points="2226,8179
2226,10140
4187,10140
4187,8179
2226,8179
" /> 
<polyline style="fill-rule:evenodd;"
points="3407,6929
3407,7690
5368,7690
5368,6929
3407,6929
" /> 
<polyline style="fill-rule:evenodd;"
points="1247,13779
1247,14540
2008,14540
2008,13779
1247,13779
" /> 
<circle cx="3628" cy="14160" r="380.315" /> 
<polyline style="fill-rule:evenodd;"
points="5358,30929
1897,30929
1897,34390
5358,34390
5358,30929
" /> 
<circle cx="2628" cy="26160" r="380.315" /> 
<circle cx="3628" cy="26160" r="380.315" /> 
<circle cx="4628" cy="26160" r="380.315" /> 
<polyline style="fill-rule:evenodd;"
points="39008,21540
39008,20779
38247,20779
38247,21540
39008,21540
" /> 
<circle cx="37628" cy="21160" r="380.315" /> 
</g>
<g style="fill:#000000; fill-opacity:1.0; 
stroke:#000000; stroke-width:680; stroke-opacity:1; 
stroke-linecap:round; stroke-linejoin:round;">
<path d="M2628 20899
L2628 21419
" />
<path d="M4628 20899
L4628 21419
" />
<path d="M2628 15899
L2628 16419
" />
<path d="M4628 15899
L4628 16419
" />
</g> 
</svg>
